<svg width="17475" height="932" viewBox="0 0 17475 932" fill="none" xmlns="http://www.w3.org/2000/svg">
<path fill-rule="evenodd" clip-rule="evenodd" d="M0 0V932H17475V0H0Z" fill="black" fill-opacity="0.01"/>
<path d="M1592.5 528.14V480.084H1432.77V523.225H1543.62V532.782C1543.62 599.405 1495.84 644.458 1425.4 644.458C1346.21 644.458 1297.06 582.749 1297.06 483.36C1297.06 385.336 1347.03 322.536 1425.12 322.536C1483.55 322.536 1523.15 350.659 1540.07 403.904H1590.04C1575.84 325.812 1512.5 277.21 1425.12 277.21C1317.27 277.21 1246.55 358.851 1246.55 483.36C1246.55 609.508 1316.18 689.784 1425.12 689.784C1525.88 689.784 1592.5 625.345 1592.5 528.14ZM1660.76 577.561C1665.95 645.55 1723.56 689.784 1807.11 689.784C1897.22 689.784 1954.29 643.639 1954.29 571.281C1954.29 513.395 1921.52 481.722 1839.88 461.243L1798.65 450.322C1744.31 436.396 1722.74 418.648 1722.74 387.794C1722.74 347.929 1757.42 321.716 1809.85 321.716C1858.99 321.716 1892.31 345.745 1899.13 386.155H1948.55C1944.46 322.536 1887.66 277.21 1811.48 277.21C1728.2 277.21 1672.23 322.536 1672.23 389.432C1672.23 445.407 1703.08 477.626 1774.35 495.647L1824.86 508.754C1879.2 522.406 1903.77 543.704 1903.77 577.288C1903.77 616.334 1864.73 645.004 1811.76 645.004C1755.78 645.004 1716.46 618.791 1710.46 577.561H1660.76Z" fill="black"/>
<path d="M14686.8 681.1H14736V287.093H14687.1L14582.3 362.454V414.333L14682.5 341.702H14686.8V681.1ZM14986.1 690.383C15074.6 690.383 15125.3 615.568 15125.3 484.779C15125.3 354.263 15073.7 277.809 14986.1 277.809C14897.9 277.809 14846.3 353.989 14846.3 483.96C14846.3 615.022 14897.3 690.383 14986.1 690.383ZM14986.1 647.515C14927.9 647.515 14895.7 589.356 14895.7 483.96C14895.7 379.929 14928.5 320.951 14986.1 320.951C15043.7 320.951 15075.9 379.383 15075.9 483.96C15075.9 589.629 15044.2 647.515 14986.1 647.515ZM15338.3 690.383C15426.8 690.383 15477.6 615.568 15477.6 484.779C15477.6 354.263 15426 277.809 15338.3 277.809C15250.1 277.809 15198.5 353.989 15198.5 483.96C15198.5 615.022 15249.6 690.383 15338.3 690.383ZM15338.3 647.515C15280.2 647.515 15247.9 589.356 15247.9 483.96C15247.9 379.929 15280.7 320.951 15338.3 320.951C15395.9 320.951 15428.1 379.383 15428.1 483.96C15428.1 589.629 15396.5 647.515 15338.3 647.515ZM15617.4 465.393C15670.6 465.393 15702.8 430.716 15702.8 372.557C15702.8 315.217 15670.3 279.994 15617.4 279.994C15564.4 279.994 15531.6 315.217 15531.6 372.557C15531.6 430.443 15563.9 465.393 15617.4 465.393ZM15635.1 681.1L15907.3 287.093H15862.8L15590.6 681.1H15635.1ZM15617.4 429.623C15589.8 429.623 15574 408.872 15574 372.83C15574 337.061 15589.8 316.036 15617.4 316.036C15644.7 316.036 15660.5 337.061 15660.5 372.83C15660.5 408.599 15644.9 429.623 15617.4 429.623ZM15880.9 684.922C15934.1 684.922 15966.3 650.245 15966.3 592.086C15966.3 534.746 15933.8 499.523 15880.9 499.523C15827.9 499.523 15795.1 534.746 15795.1 592.086C15795.1 649.972 15827.6 684.922 15880.9 684.922ZM15880.9 649.153C15853.3 649.153 15837.7 628.402 15837.7 592.359C15837.7 556.59 15853.3 535.566 15880.9 535.566C15908.4 535.566 15924 556.59 15924 592.359C15924 628.129 15908.4 649.153 15880.9 649.153Z" fill="#030303"/>
<path opacity="0.4" d="M16240.1 256.3H17032.3C17083.8 256.3 17125.5 298.027 17125.5 349.5V605.799C17125.5 657.272 17083.8 699 17032.3 699H16984.2H16240.1C16188.6 699 16146.9 657.272 16146.9 605.799V349.5C16146.9 298.027 16188.6 256.3 16240.1 256.3Z" stroke="black" stroke-width="46.6"/>
<path fill-rule="evenodd" clip-rule="evenodd" d="M17195.4 576.628C17235.6 566.282 17265.3 529.792 17265.3 486.364C17265.3 442.937 17235.6 406.447 17195.4 396.101V576.628Z" fill="black" fill-opacity="0.5"/>
<path fill-rule="evenodd" clip-rule="evenodd" d="M16216.8 372.8C16216.8 347.063 16237.7 326.2 16263.4 326.2H17009C17034.7 326.2 17055.6 347.063 17055.6 372.8V582.5C17055.6 608.236 17034.7 629.1 17009 629.1H16263.4C16237.7 629.1 16216.8 608.236 16216.8 582.5V372.8Z" fill="black"/>
<path d="M7845.91 672.733H7913.35V597.099H7966.6V538.94H7913.35V278.727H7813.96C7760.45 360.095 7704.47 450.746 7653.41 539.487V597.099H7845.91V672.733ZM7718.67 536.483C7757.17 469.587 7802.77 396.683 7843.18 334.974H7847V540.579H7718.67V536.483ZM8090.29 417.708C8116.23 417.708 8133.98 399.687 8133.98 375.385C8133.98 351.084 8116.23 333.063 8090.29 333.063C8064.62 333.063 8046.6 351.084 8046.6 375.385C8046.6 399.687 8064.62 417.708 8090.29 417.708ZM8090.29 618.124C8116.23 618.124 8133.98 599.83 8133.98 575.802C8133.98 551.501 8116.23 533.48 8090.29 533.48C8064.62 533.48 8046.6 551.501 8046.6 575.802C8046.6 599.83 8064.62 618.124 8090.29 618.124ZM8373.16 682.563C8459.17 682.563 8516.79 626.042 8516.79 543.582C8516.79 464.399 8462.18 413.885 8394.74 413.885C8354.6 413.885 8325.65 427.537 8308.18 451.838H8303.54L8314.46 336.613H8495.76V278.727H8259.58L8238.01 507.813H8301.9C8315.28 481.874 8341.22 466.31 8374.8 466.31C8418.22 466.31 8448.8 497.71 8448.8 544.674C8448.8 593.004 8418.22 625.223 8372.89 625.223C8332.75 625.223 8302.45 600.922 8298.08 564.061H8232.27C8235.28 633.142 8291.8 682.563 8373.16 682.563ZM8729.76 682.29C8829.97 682.29 8889.5 603.926 8889.5 470.952C8889.5 340.435 8826.15 268.897 8731.95 268.897C8646.21 268.897 8585.6 326.51 8585.6 407.059C8585.6 482.693 8640.2 537.848 8715.29 537.848C8761.44 537.848 8798.84 516.551 8817.41 479.143H8822.05C8821.23 571.706 8788.2 624.677 8730.58 624.677C8696.73 624.677 8669.69 606.11 8661.23 576.075H8591.06C8602.52 640.241 8657.68 682.29 8729.76 682.29ZM8732.22 483.512C8686.35 483.512 8654.68 451.292 8654.68 404.874C8654.68 360.368 8687.99 326.237 8732.49 326.237C8777 326.237 8810.31 360.914 8810.31 406.24C8810.31 451.019 8777.82 483.512 8732.22 483.512ZM9121.59 278.727V672.733H9192.03V542.49H9277.5C9357.23 542.49 9412.93 489.246 9412.93 411.428C9412.93 332.244 9359.14 278.727 9280.5 278.727H9121.59ZM9192.03 336.34H9261.93C9312.72 336.34 9341.39 362.552 9341.39 411.428C9341.39 458.938 9311.9 485.696 9261.66 485.696H9192.03V336.34ZM9897.59 672.733V278.727H9815.13L9696.62 571.16H9691.71L9573.21 278.727H9490.75V672.733H9556.28V393.406H9560.1L9669.05 660.446H9719.29L9828.23 393.406H9832.05V672.733H9897.59Z" fill="#030303"/>
<path fill-rule="evenodd" clip-rule="evenodd" d="M2422.62 256.3C2542.06 256.3 2649.81 304.738 2726.1 382.44L2675.39 431.704C2612.11 366.533 2522.27 325.838 2422.62 325.838C2323.61 325.838 2234.29 366.011 2171.07 430.448L2120.3 381.264C2196.52 304.249 2303.79 256.3 2422.62 256.3ZM2624.67 480.979C2574.4 428.335 2502.48 395.375 2422.62 395.375C2343.43 395.375 2272.06 427.777 2221.85 479.639L2272.65 528.845C2309.83 489.55 2363.25 464.913 2422.62 464.913C2482.7 464.913 2536.7 490.15 2573.93 530.277L2624.67 480.979ZM2523.13 579.634C2498.99 551.998 2462.92 534.451 2422.62 534.451C2383.08 534.451 2347.61 551.345 2323.48 578.088L2424.25 675.7L2523.13 579.634Z" fill="#030303"/>
<path fill-rule="evenodd" clip-rule="evenodd" d="M908.7 233C895.832 233 885.4 243.432 885.4 256.3V652.4C885.4 665.268 895.832 675.7 908.7 675.7H978.6C991.468 675.7 1001.9 665.268 1001.9 652.4V256.3C1001.9 243.432 991.468 233 978.6 233H908.7ZM722.3 349.5C709.432 349.5 699 359.932 699 372.8V652.4C699 665.268 709.432 675.7 722.3 675.7H792.2C805.068 675.7 815.5 665.268 815.5 652.4V372.8C815.5 359.932 805.068 349.5 792.2 349.5H722.3ZM512.6 466C512.6 453.132 523.032 442.7 535.9 442.7H605.8C618.668 442.7 629.1 453.132 629.1 466V652.4C629.1 665.268 618.668 675.7 605.8 675.7H535.9C523.032 675.7 512.6 665.268 512.6 652.4V466ZM349.5 535.9C336.632 535.9 326.2 546.332 326.2 559.2V652.4C326.2 665.268 336.632 675.7 349.5 675.7H419.4C432.268 675.7 442.7 665.268 442.7 652.4V559.2C442.7 546.332 432.268 535.9 419.4 535.9H349.5Z" fill="black"/>
</svg>
